<svg xmlns="http://www.w3.org/2000/svg" xmlns:xlink="http://www.w3.org/1999/xlink" viewBox="0 0 355.37 255.35"><defs><style>.cls-1,.cls-12,.cls-14,.cls-4{fill:none;}.cls-2{isolation:isolate;}.cls-13,.cls-3,.cls-4,.cls-5,.cls-6,.cls-8{opacity:0.35;}.cls-3{fill:url(#linear-gradient);}.cls-12,.cls-14,.cls-4{stroke:#b7b4f7;stroke-linecap:round;stroke-miterlimit:10;stroke-width:3px;}.cls-5{fill:url(#linear-gradient-2);}.cls-6{fill:url(#linear-gradient-3);}.cls-7{fill:#e16afb;}.cls-11,.cls-8{fill:#b7b4f7;}.cls-9{fill:#9702f6;}.cls-10{fill:#4f32ff;}.cls-11,.cls-12{opacity:0.25;}.cls-15{clip-path:url(#clip-path);}.cls-16{fill:url(#radial-gradient);}.cls-17{fill:url(#radial-gradient-2);}.cls-18{fill:url(#radial-gradient-3);}.cls-19{fill:url(#radial-gradient-4);}.cls-20{fill:url(#radial-gradient-5);}.cls-21{fill:url(#linear-gradient-4);}.cls-22{fill:url(#radial-gradient-6);}.cls-23{fill:url(#linear-gradient-5);}.cls-24{fill:url(#radial-gradient-7);}.cls-25{fill:#fff;}.cls-26{fill:#001032;}.cls-27{fill:url(#linear-gradient-6);}.cls-28{fill:url(#radial-gradient-8);}.cls-29{fill:url(#radial-gradient-9);}.cls-30,.cls-31,.cls-32,.cls-33,.cls-34{mix-blend-mode:multiply;}.cls-30{fill:url(#linear-gradient-7);}.cls-31{fill:url(#linear-gradient-8);}.cls-32{fill:url(#linear-gradient-9);}.cls-33{fill:url(#linear-gradient-10);}.cls-34{fill:url(#linear-gradient-11);}.cls-35,.cls-36,.cls-37,.cls-38{opacity:0.57;mix-blend-mode:overlay;}.cls-35{fill:url(#radial-gradient-10);}.cls-36{fill:url(#radial-gradient-11);}.cls-37{fill:url(#radial-gradient-12);}.cls-38{fill:url(#radial-gradient-13);}.cls-39{fill:url(#linear-gradient-12);}</style><linearGradient id="linear-gradient" x1="188.37" y1="222.42" x2="185.96" y2="54.42" gradientUnits="userSpaceOnUse"><stop offset="0" stop-color="#9393dc"/><stop offset="0.99" stop-color="#dfe0fe"/></linearGradient><linearGradient id="linear-gradient-2" x1="187.22" y1="224.36" x2="186.81" y2="246.81" xlink:href="#linear-gradient"/><linearGradient id="linear-gradient-3" x1="187.23" y1="245.78" x2="187.01" y2="258.12" gradientUnits="userSpaceOnUse"><stop offset="0.01" stop-color="#dfe0fe"/><stop offset="1" stop-color="#9393dc"/></linearGradient><clipPath id="clip-path"><rect class="cls-1" x="131.22" y="170.42" width="21.23" height="14.71"/></clipPath><radialGradient id="radial-gradient" cx="712.94" cy="-2441.17" r="77.58" gradientTransform="translate(-248.38 1266.36) scale(0.45)" gradientUnits="userSpaceOnUse"><stop offset="0.04" stop-color="#fff36c"/><stop offset="0.12" stop-color="#ffef5e"/><stop offset="0.27" stop-color="#ffe53a"/><stop offset="0.48" stop-color="#ffd400"/><stop offset="1" stop-color="#fbb334"/></radialGradient><radialGradient id="radial-gradient-2" cx="-1680.43" cy="-2417.32" r="20.04" gradientTransform="matrix(-0.45, 0, 0, 0.45, -672.4, 1266.36)" gradientUnits="userSpaceOnUse"><stop offset="0" stop-color="#d25906"/><stop offset="0.14" stop-color="#d35b07" stop-opacity="0.98"/><stop offset="0.27" stop-color="#d5600a" stop-opacity="0.92"/><stop offset="0.41" stop-color="#d9690e" stop-opacity="0.83"/><stop offset="0.55" stop-color="#df7514" stop-opacity="0.69"/><stop offset="0.69" stop-color="#e6851c" stop-opacity="0.51"/><stop offset="0.84" stop-color="#ef9826" stop-opacity="0.3"/><stop offset="0.97" stop-color="#f9af32" stop-opacity="0.05"/><stop offset="1" stop-color="#fbb334" stop-opacity="0"/></radialGradient><radialGradient id="radial-gradient-3" cx="738.56" cy="-2442.54" r="28.86" gradientTransform="translate(-248.38 1266.36) scale(0.45)" gradientUnits="userSpaceOnUse"><stop offset="0.24" stop-color="#ff749b"/><stop offset="1" stop-color="#ff3982"/></radialGradient><radialGradient id="radial-gradient-4" cx="689.13" cy="-2417.32" r="20.04" gradientTransform="translate(-248.38 1266.36) scale(0.45)" xlink:href="#radial-gradient-2"/><radialGradient id="radial-gradient-5" cx="689.29" cy="-2442.54" r="28.86" xlink:href="#radial-gradient-3"/><linearGradient id="linear-gradient-4" x1="72.76" y1="187.44" x2="72.76" y2="194.92" gradientUnits="userSpaceOnUse"><stop offset="0" stop-color="#002139"/><stop offset="0.23" stop-color="#00243e"/><stop offset="0.51" stop-color="#002e4e"/><stop offset="0.83" stop-color="#003e67"/><stop offset="1" stop-color="#004978"/></linearGradient><radialGradient id="radial-gradient-6" cx="714.89" cy="-2376.89" r="14.13" gradientTransform="translate(-392.37 1266.36) scale(0.65 0.45)" xlink:href="#radial-gradient-2"/><linearGradient id="linear-gradient-5" x1="72.76" y1="191.75" x2="72.76" y2="199.56" gradientUnits="userSpaceOnUse"><stop offset="0" stop-color="#f64c62"/><stop offset="0.11" stop-color="#f14b63"/><stop offset="0.24" stop-color="#e14966"/><stop offset="0.39" stop-color="#c8456b"/><stop offset="0.55" stop-color="#a44072"/><stop offset="0.71" stop-color="#77397b"/><stop offset="0.88" stop-color="#403086"/><stop offset="1" stop-color="#152a8f"/></linearGradient><radialGradient id="radial-gradient-7" cx="121.2" cy="140.26" r="13.58" gradientUnits="userSpaceOnUse"><stop offset="0" stop-color="#ffd861"/><stop offset="0.1" stop-color="#ffd753"/><stop offset="0.28" stop-color="#ffd62f"/><stop offset="0.48" stop-color="#ffd400"/><stop offset="0.75" stop-color="#fbb334"/><stop offset="1" stop-color="#ffa726"/></radialGradient><linearGradient id="linear-gradient-6" x1="121.41" y1="152.48" x2="121.41" y2="155.16" gradientUnits="userSpaceOnUse"><stop offset="0" stop-color="#f64c62"/><stop offset="0.23" stop-color="#f44c62"/><stop offset="0.35" stop-color="#ec4a64"/><stop offset="0.44" stop-color="#de4867"/><stop offset="0.53" stop-color="#cb456b"/><stop offset="0.6" stop-color="#b24270"/><stop offset="0.67" stop-color="#933d76"/><stop offset="0.74" stop-color="#6e377d"/><stop offset="0.8" stop-color="#453185"/><stop offset="0.85" stop-color="#152a8f"/></linearGradient><radialGradient id="radial-gradient-8" cx="86.21" cy="134.43" r="13.58" gradientUnits="userSpaceOnUse"><stop offset="0" stop-color="#ff3d1f"/><stop offset="0.52" stop-color="#ff8a46"/><stop offset="0.81" stop-color="#fca53a"/><stop offset="1" stop-color="#fbb334"/></radialGradient><radialGradient id="radial-gradient-9" cx="531.91" cy="-2204.63" r="75.1" gradientTransform="translate(36.28 1195.74) scale(0.48)" gradientUnits="userSpaceOnUse"><stop offset="0" stop-color="#fff339"/><stop offset="0" stop-color="#fff339"/><stop offset="0.32" stop-color="#ffdd10"/><stop offset="0.48" stop-color="#ffd400"/><stop offset="1" stop-color="#fbb334"/></radialGradient><linearGradient id="linear-gradient-7" x1="297.35" y1="158.13" x2="297.4" y2="154.18" gradientUnits="userSpaceOnUse"><stop offset="0" stop-color="#ff8a46" stop-opacity="0.6"/><stop offset="0.14" stop-color="#ff8d44" stop-opacity="0.55"/><stop offset="0.39" stop-color="#fe9740" stop-opacity="0.41"/><stop offset="0.72" stop-color="#fca63a" stop-opacity="0.2"/><stop offset="1" stop-color="#fbb334" stop-opacity="0"/></linearGradient><linearGradient id="linear-gradient-8" x1="294.66" y1="165.43" x2="294.71" y2="161.09" xlink:href="#linear-gradient-7"/><linearGradient id="linear-gradient-9" x1="297.51" y1="150.53" x2="297.54" y2="147.8" gradientUnits="userSpaceOnUse"><stop offset="0" stop-color="#fbb334"/><stop offset="0.09" stop-color="#fbb334" stop-opacity="0.95"/><stop offset="0.26" stop-color="#fbb334" stop-opacity="0.81"/><stop offset="0.49" stop-color="#fbb334" stop-opacity="0.59"/><stop offset="0.76" stop-color="#fbb334" stop-opacity="0.28"/><stop offset="1" stop-color="#fbb334" stop-opacity="0"/></linearGradient><linearGradient id="linear-gradient-10" x1="276.31" y1="171.73" x2="276.48" y2="157.48" xlink:href="#linear-gradient-7"/><linearGradient id="linear-gradient-11" x1="276.39" y1="148.07" x2="276.57" y2="132.83" gradientUnits="userSpaceOnUse"><stop offset="0" stop-color="#fbb334" stop-opacity="0.4"/><stop offset="0.19" stop-color="#fbb334" stop-opacity="0.35"/><stop offset="0.54" stop-color="#fbb334" stop-opacity="0.21"/><stop offset="1" stop-color="#fbb334" stop-opacity="0"/></linearGradient><radialGradient id="radial-gradient-10" cx="-780.34" cy="239.43" r="2.88" gradientTransform="matrix(-1.17, 0, 0, 1.8, -630.97, -301.25)" gradientUnits="userSpaceOnUse"><stop offset="0" stop-color="#fff"/><stop offset="1" stop-color="#fff" stop-opacity="0"/></radialGradient><radialGradient id="radial-gradient-11" cx="263.37" cy="149.5" r="8.1" gradientUnits="userSpaceOnUse"><stop offset="0" stop-color="#fff" stop-opacity="0.74"/><stop offset="1" stop-color="#fff" stop-opacity="0"/></radialGradient><radialGradient id="radial-gradient-12" cx="-734.67" cy="122.19" r="2.88" gradientTransform="matrix(0, -1.48, -1.09, 0, 429.94, -935.44)" xlink:href="#radial-gradient-10"/><radialGradient id="radial-gradient-13" cx="-733.56" cy="128.38" r="2.88" gradientTransform="matrix(0, -1.48, -1.09, 0, 434.77, -927.13)" xlink:href="#radial-gradient-10"/><linearGradient id="linear-gradient-12" x1="182.67" y1="20.4" x2="191.86" y2="52.12" gradientUnits="userSpaceOnUse"><stop offset="0" stop-color="#063dff"/><stop offset="0.97" stop-color="#158dff"/></linearGradient></defs><title>downloading</title><g class="cls-2"><g id="Layer_2" data-name="Layer 2"><g id="Art_01" data-name="Art 01"><path class="cls-3" d="M288.25,47.84H85.94A15.52,15.52,0,0,0,70.42,63.36V203.17A15.52,15.52,0,0,0,85.94,218.7H288.25a15.52,15.52,0,0,0,15.52-15.53V63.36A15.52,15.52,0,0,0,288.25,47.84Zm3.84,148.84a3.53,3.53,0,0,1-3.53,3.52H85.63a3.53,3.53,0,0,1-3.53-3.52V63.05a3.53,3.53,0,0,1,3.53-3.53H288.56a3.53,3.53,0,0,1,3.53,3.53Z"/><line class="cls-4" x1="311.79" y1="13.82" x2="306.2" y2="30.1"/><line class="cls-4" x1="330.53" y1="24.84" x2="317.19" y2="36.59"/><line class="cls-4" x1="341.09" y1="42.73" x2="324.82" y2="48.79"/><path class="cls-4" d="M25.54,94.62c15.7-2.43,29.64,7.2,32,22.73a26.7,26.7,0,0,1-5.67,21.34,2.3,2.3,0,0,0-.5,1.71l.61,5a2.25,2.25,0,0,1-2.82,2.45l-5.91-1.58a2.16,2.16,0,0,0-1.5.12,30.72,30.72,0,0,1-7.91,2.31c-15.7,2.42-29.64-7.2-32-22.73s8-28.91,23.7-31.33"/><path class="cls-4" d="M336.05,73c-11.64-1.8-22,5.33-23.75,16.85a19.8,19.8,0,0,0,4.2,15.82,1.65,1.65,0,0,1,.37,1.26l-.45,3.7a1.67,1.67,0,0,0,2.09,1.82l4.38-1.18a1.67,1.67,0,0,1,1.12.09,22.54,22.54,0,0,0,5.85,1.71c11.64,1.8,22-5.33,23.75-16.85S347.68,74.83,336.05,73"/><rect class="cls-5" x="171.67" y="218.7" width="30.85" height="24.75"/><path class="cls-6" d="M136.08,243.44h102a7.93,7.93,0,0,1,7.93,7.93v4a0,0,0,0,1,0,0H128.15a0,0,0,0,1,0,0v-4A7.93,7.93,0,0,1,136.08,243.44Z"/><rect class="cls-7" x="215.27" y="75.66" width="6.58" height="39.72" rx="3.29" transform="translate(314.08 -123.03) rotate(90)"/><rect class="cls-8" x="197.08" y="88.86" width="6.58" height="39.72" rx="3.29" transform="translate(309.09 -91.65) rotate(90)"/><rect class="cls-8" x="197.08" y="121.78" width="6.58" height="39.72" rx="3.29" transform="translate(342.01 -58.73) rotate(90)"/><rect class="cls-9" x="211.98" y="105.31" width="13.16" height="39.72" rx="4.04" transform="translate(343.73 -93.39) rotate(90)"/><rect class="cls-10" x="215.27" y="134.95" width="6.58" height="39.72" rx="3.29" transform="translate(373.37 -63.74) rotate(90)"/><rect class="cls-10" x="211.98" y="146.53" width="13.16" height="39.72" rx="4.04" transform="translate(384.95 -52.16) rotate(90)"/><circle class="cls-11" cx="141.39" cy="109.46" r="7.3"/><line class="cls-12" x1="154.76" y1="109.46" x2="162.03" y2="109.46"/><circle class="cls-8" cx="141.39" cy="133.06" r="7.3"/><line class="cls-12" x1="154.76" y1="133.06" x2="162.03" y2="133.06"/><circle class="cls-11" cx="139.27" cy="158.78" r="5.19"/><path class="cls-8" d="M143.5,149.37a5.18,5.18,0,0,0-5.1,4.31,4.93,4.93,0,0,1,.87-.09,5.11,5.11,0,0,1,5.1,6.07,5.18,5.18,0,0,0-.87-10.29Z"/><line class="cls-12" x1="154.76" y1="156.67" x2="162.03" y2="156.67"/><line class="cls-12" x1="154.76" y1="180.27" x2="162.03" y2="180.27"/><line class="cls-12" x1="132.93" y1="93.08" x2="162.03" y2="93.08"/><g class="cls-13"><line class="cls-14" x1="170.43" y1="80.55" x2="170.43" y2="186.9"/><rect class="cls-14" x="125.69" y="80.55" width="122.81" height="106.35" rx="7.08"/></g><g class="cls-15"><circle class="cls-11" cx="141.41" cy="180.24" r="7.3"/></g><circle class="cls-16" cx="72.76" cy="186.9" r="21.03"/><path class="cls-17" d="M92.16,178.78a17.19,17.19,0,0,1-2.4,3.16,20,20,0,0,1-2,1.79,8.34,8.34,0,0,1-4,2.05,6.79,6.79,0,0,1-3.14-1.44,18.44,18.44,0,0,1-2.77-2.4c-2.17-2.27-4-5.33-4-8.59a5.29,5.29,0,0,1,.45-2.14,5.43,5.43,0,0,1,1.13-1.66A5.35,5.35,0,0,1,79,168a5.42,5.42,0,0,1,4.82,2.52,4.84,4.84,0,0,1,.77-1A21,21,0,0,1,92.16,178.78Z"/><path class="cls-18" d="M77.94,179.84a19.92,19.92,0,0,0,2,1.79,8.4,8.4,0,0,0,4,2.05A6.77,6.77,0,0,0,87,182.24a19.08,19.08,0,0,0,2.78-2.4c2.16-2.27,4-5.33,4-8.59a5.42,5.42,0,0,0-.44-2.14,5.5,5.5,0,0,0-1.14-1.67,5.37,5.37,0,0,0-8.36.95,5.38,5.38,0,0,0-9.5.72,5.26,5.26,0,0,0-.45,2.14C73.9,174.51,75.77,177.57,77.94,179.84Z"/><path class="cls-19" d="M53.36,178.78a17.19,17.19,0,0,0,2.4,3.16,20,20,0,0,0,2,1.79,8.34,8.34,0,0,0,4,2.05,6.79,6.79,0,0,0,3.14-1.44,18.44,18.44,0,0,0,2.77-2.4c2.17-2.27,4-5.33,4-8.59a5.29,5.29,0,0,0-.45-2.14A5.43,5.43,0,0,0,70,169.55,5.35,5.35,0,0,0,66.49,168a5.42,5.42,0,0,0-4.82,2.52,4.84,4.84,0,0,0-.77-1A21,21,0,0,0,53.36,178.78Z"/><path class="cls-20" d="M55.76,179.84a20,20,0,0,0,2,1.79,8.34,8.34,0,0,0,4,2.05,6.79,6.79,0,0,0,3.14-1.44,19,19,0,0,0,2.77-2.4c2.17-2.27,4-5.33,4-8.59a5.26,5.26,0,0,0-.45-2.14,5.38,5.38,0,0,0-9.5-.72,5.38,5.38,0,0,0-8.36-.95,5.5,5.5,0,0,0-1.14,1.67,5.42,5.42,0,0,0-.44,2.14C51.73,174.51,53.6,177.57,55.76,179.84Z"/><path class="cls-21" d="M83.59,186.25a2.24,2.24,0,0,1,.71,2,4.78,4.78,0,0,1-.35,1.6c-.11.29-.24.59-.39.91-.08.16-.16.32-.25.48l-.31.47a10.42,10.42,0,0,1-1.64,1.88,13.73,13.73,0,0,1-1.07.9c-.4.26-.82.52-1.25.78a13,13,0,0,1-12.56,0c-.43-.26-.85-.52-1.25-.78a13.73,13.73,0,0,1-1.07-.9,10.42,10.42,0,0,1-1.64-1.88l-.31-.47c-.09-.16-.17-.32-.25-.48-.15-.32-.28-.62-.39-.91a4.78,4.78,0,0,1-.35-1.6,2.24,2.24,0,0,1,.71-2,2.69,2.69,0,0,1,2-.38c.38,0,.77.15,1.22.22l.66.16.32.1.36.08c.48.09.93.26,1.45.34.25,0,.49.13.75.17a7,7,0,0,1,.78.13,26.8,26.8,0,0,0,3.33.29,26.8,26.8,0,0,0,3.33-.29,7,7,0,0,1,.78-.13c.26,0,.5-.13.75-.17.52-.08,1-.25,1.45-.34l.35-.08.33-.1.66-.16c.45-.07.84-.17,1.22-.22A2.69,2.69,0,0,1,83.59,186.25Z"/><path class="cls-22" d="M72.76,199.79h0a11.75,11.75,0,0,1-8.1-2.9v.87c0,3.09,3.63,5.6,8.1,5.6h0c4.47,0,8.1-2.51,8.1-5.6v-.87A11.75,11.75,0,0,1,72.76,199.79Z"/><path class="cls-23" d="M72.76,192.15a12.55,12.55,0,0,0-7.42,2.43c.37.24.75.48,1.14.71a13,13,0,0,0,12.56,0c.39-.23.77-.47,1.14-.71A12.55,12.55,0,0,0,72.76,192.15Z"/><circle class="cls-24" cx="121.41" cy="148.77" r="8.18"/><circle class="cls-25" cx="118.13" cy="146.14" r="2.73"/><circle class="cls-26" cx="118.13" cy="146.14" r="1.56"/><ellipse class="cls-26" cx="121.41" cy="151.52" rx="2.23" ry="2.72"/><path class="cls-27" d="M121.41,152.62a2.73,2.73,0,0,0-1.72.65,2,2,0,0,0,3.43,0A2.7,2.7,0,0,0,121.41,152.62Z"/><circle class="cls-25" cx="124.64" cy="146.14" r="2.73"/><circle class="cls-26" cx="124.64" cy="146.14" r="1.56"/><circle class="cls-28" cx="86.42" cy="142.94" r="8.18"/><path class="cls-26" d="M88.6,147.23c-.17.42-.88-.87-2.15-.87s-2,1.29-2.15.87.43-1.8,2.15-1.82S88.85,146.9,88.6,147.23Z"/><path class="cls-25" d="M81.51,140.08a2.63,2.63,0,0,0-1.18,2.2,2.67,2.67,0,0,0,5.34,0,2.73,2.73,0,0,0,0-.5Z"/><path class="cls-26" d="M84.56,142.28a1.56,1.56,0,0,1-3.12,0,1.54,1.54,0,0,1,1.48-1.55l1.24.51A1.55,1.55,0,0,1,84.56,142.28Z"/><path class="cls-26" d="M85.54,139c.17,0,.32.32.43.83a3.84,3.84,0,0,1,.09,1l0,.16-.05.23a1.3,1.3,0,0,1-.22.46.91.91,0,0,1-.94.36l-.14,0-.07,0-.16-.06-.35-.15-.8-.36c-.56-.25-1.17-.54-1.73-.82-1.11-.56-2-1.08-1.93-1.24s1,.08,2.18.41c.56.16,1.17.35,1.71.54l.78.27.55.21a0,0,0,0,1,0,0h0s0,0,0,0l0-.1c.07-.27.11-.56.17-.82C85.22,139.35,85.37,139,85.54,139Z"/><path class="cls-25" d="M91.33,140.08a2.63,2.63,0,0,1,1.17,2.2,2.67,2.67,0,0,1-5.33,0,2.07,2.07,0,0,1,0-.5Z"/><path class="cls-26" d="M88.27,142.28a1.57,1.57,0,1,0,1.65-1.55l-1.24.51A1.56,1.56,0,0,0,88.27,142.28Z"/><path class="cls-26" d="M87.3,139c-.17,0-.32.32-.43.83a3.43,3.43,0,0,0-.09,1V141l0,.23a1.53,1.53,0,0,0,.23.46.9.9,0,0,0,.93.36l.14,0,.08,0,.16-.06.35-.15.8-.36c.56-.25,1.17-.54,1.72-.82,1.11-.56,2-1.08,1.94-1.24s-1,.08-2.18.41c-.57.16-1.17.35-1.72.54l-.77.27-.56.21h0l0,0,0-.1c-.06-.27-.1-.56-.16-.82C87.62,139.35,87.47,139,87.3,139Z"/><path class="cls-29" d="M278.08,128.21a1.72,1.72,0,0,1,1.75-1.78c2.11,0,7,1.38,7,9.83a30.8,30.8,0,0,1-.49,5.44h0a.69.69,0,0,0,.69.78c8.4,0,12.89,2.22,12.89,4.49a4,4,0,0,1-1.18,2.85,4.07,4.07,0,0,1,2.11,3.55,4,4,0,0,1-2.55,3.8,4,4,0,0,1,.77,2.36,4,4,0,0,1-2.89,3.94,3.61,3.61,0,0,1,.26,1.32c0,2-3.39,3.65-11.36,3.65-5.83,0-9.85-1-11.39-1.79-1.14-.55-2.63-1.54-2.63-4.47V150.57c0-6.55,7.44-8.76,7.44-15.2,0-4.06-.43-5.77-.43-7.16m-12.27,42h-3.94c-2,0-3.07-3.94-3.07-11.63S259.89,147,261.87,147h3.94a1.77,1.77,0,0,1,1.75,1.79v19.67a1.77,1.77,0,0,1-1.75,1.79"/><path class="cls-30" d="M300.73,154.37a37.24,37.24,0,0,1-6.6,2.25.13.13,0,0,0,0,.26,28.36,28.36,0,0,1,4.15.3,4,4,0,0,0,2.37-2.56A1.84,1.84,0,0,1,300.73,154.37Z"/><path class="cls-31" d="M296.19,163.48a3.81,3.81,0,0,0,2.51-2.18,62.05,62.05,0,0,1-7.89,2.43.16.16,0,0,0,0,.31,41.08,41.08,0,0,1,5.57.36A3.19,3.19,0,0,0,296.19,163.48Z"/><path class="cls-32" d="M295.36,149.39a.13.13,0,0,0,0,.26,21.61,21.61,0,0,1,3.44.23l-.08,0a4.11,4.11,0,0,0,1.06-1.9A36.94,36.94,0,0,1,295.36,149.39Z"/><path class="cls-33" d="M273.7,166.66a24.55,24.55,0,0,0,8.06,1.67c-7-.79-10.69-10.38-10.69-10.38v4.24C271.07,165.12,272.56,166.11,273.7,166.66Z"/><path class="cls-34" d="M278.48,133.43c0,.58,0,1.22,0,1.94,0,3.9-2.73,6.25-4.89,9h0c8.71-3.48,4.86-10.9,4.86-10.9Z"/><ellipse class="cls-35" cx="282.64" cy="131.82" rx="3.38" ry="5.2" transform="translate(-29.22 134.1) rotate(-25.42)"/><path class="cls-36" d="M263.07,158.76a6.31,6.31,0,0,0,4.49-1.71v-8.27a1.77,1.77,0,0,0-1.75-1.79h-3.94c-1.82,0-2.89,3.35-3.05,9.87A6.32,6.32,0,0,0,263.07,158.76Z"/><ellipse class="cls-37" cx="296.59" cy="153.06" rx="3.13" ry="4.28" transform="translate(133.18 444.08) rotate(-87.98)"/><ellipse class="cls-38" cx="294.7" cy="159.72" rx="3.13" ry="4.28" transform="matrix(0.04, -1, 1, 0.04, 124.71, 448.61)"/><path class="cls-39" d="M182.91,67.73,162.78,38.37A4.89,4.89,0,0,1,167,30.76h8.95V5.6A5.6,5.6,0,0,1,181.51,0h11.18a5.6,5.6,0,0,1,5.59,5.6V30.76h8.94a4.89,4.89,0,0,1,4.19,7.61L191.28,67.73a5.1,5.1,0,0,1-8.37,0"/></g></g></g></svg>
