<svg xmlns="http://www.w3.org/2000/svg" xmlns:xlink="http://www.w3.org/1999/xlink" viewBox="0 0 40 33.19"><defs><style>.cls-1{fill-rule:evenodd;fill:url(#linear-gradient);}.cls-2{fill:url(#linear-gradient-2);}.cls-3{fill:url(#linear-gradient-3);}</style><linearGradient id="linear-gradient" x1="20" y1="33.19" x2="20" gradientUnits="userSpaceOnUse"><stop offset="0" stop-color="#00bcc8"/><stop offset="1" stop-color="#01f5ac"/></linearGradient><linearGradient id="linear-gradient-2" x1="20" y1="3.12" x2="20" y2="27.89" gradientUnits="userSpaceOnUse"><stop offset="0" stop-color="#fff" stop-opacity="0"/><stop offset="0.16" stop-color="#fff" stop-opacity="0.03"/><stop offset="0.4" stop-color="#fff" stop-opacity="0.11"/><stop offset="0.69" stop-color="#fff" stop-opacity="0.24"/><stop offset="1" stop-color="#fff" stop-opacity="0.4"/></linearGradient><linearGradient id="linear-gradient-3" x1="19.69" y1="8.83" x2="19.5" y2="23.69" gradientUnits="userSpaceOnUse"><stop offset="0" stop-color="#efeffe"/><stop offset="0.99" stop-color="#fff"/></linearGradient></defs><title>gif</title><g id="Layer_2" data-name="Layer 2"><g id="Art_01" data-name="Art 01"><path class="cls-1" d="M34,33l-15.27.2a6,6,0,0,1-4.59-2,3,3,0,0,0-2.27-1l-5.4.07a6.11,6.11,0,0,1-6.2-6L0,6.4A6.1,6.1,0,0,1,6,.21L21.3,0a6.1,6.1,0,0,1,4.59,2,3,3,0,0,0,2.27,1l5.4-.07a6.11,6.11,0,0,1,6.2,6L40,26.79A6.11,6.11,0,0,1,34,33Z"/><path class="cls-2" d="M18.61,30.19a3.08,3.08,0,0,1-2.29-1,6,6,0,0,0-4.44-1.95l-5.48.08a3.14,3.14,0,0,1-3.16-3.07L3,6.36A3.11,3.11,0,0,1,6.07,3.21L21.34,3a3.11,3.11,0,0,1,2.34,1,6,6,0,0,0,4.44,2l5.49-.07A3.13,3.13,0,0,1,36.76,9L37,26.83a3.12,3.12,0,0,1-.88,2.22,3.16,3.16,0,0,1-2.19.94Z"/><path class="cls-3" d="M15.76,15.26l-3.41.05a1.39,1.39,0,0,0,0,2.78l1.93,0a2.76,2.76,0,0,1-2.82,2.82c-2,0-3.27-1.73-3.3-4.19s1.29-4.15,3.26-4.17a2.61,2.61,0,0,1,2.16,1.06,1.65,1.65,0,0,0,1.29.63,1.25,1.25,0,0,0,1-2,5.16,5.16,0,0,0-4.49-2.08c-3.75.05-6,2.81-6,6.64s2.27,6.6,6.06,6.55c3.54,0,5.8-2.53,5.75-6.69A1.42,1.42,0,0,0,15.76,15.26ZM22,11.71a1.39,1.39,0,0,0-2.78,0l.13,9.72a1.41,1.41,0,0,0,1.41,1.37,1.39,1.39,0,0,0,1.37-1.41Zm10.4-1.53-6.25.08a1.39,1.39,0,0,0-1.37,1.41l.13,9.72a1.39,1.39,0,0,0,2.78,0l0-2.77,4.16-.06a1.39,1.39,0,0,0,0-2.78l-4.17.06,0-2.78L32.45,13a1.4,1.4,0,0,0,1.37-1.41A1.38,1.38,0,0,0,32.42,10.18Z"/></g></g></svg>
