<svg width="117" height="110" viewBox="0 0 117 110" fill="none" xmlns="http://www.w3.org/2000/svg">
<path fill-rule="evenodd" clip-rule="evenodd" d="M49.1629 24.52C27.8281 24.52 11.2903 40.1478 11.2903 61.2565C11.2903 72.2977 15.8153 81.8385 23.1844 88.4286C23.803 88.9819 24.1764 89.7581 24.2018 90.5877L24.408 97.3252C24.4739 99.4736 26.6936 100.872 28.66 100.004L36.1771 96.6859C36.8144 96.4045 37.5284 96.3521 38.1999 96.5369C41.6543 97.4868 45.3308 97.9929 49.1629 97.9929C70.4977 97.9929 87.0355 82.3652 87.0355 61.2565C87.0355 40.1478 70.4977 24.52 49.1629 24.52Z" fill="url(#paint0_linear)"/>
<path fill-rule="evenodd" clip-rule="evenodd" d="M26.4206 71.9999L37.5456 54.3497C39.3152 51.5419 43.1048 50.8427 45.76 52.8341L54.6084 59.4703C55.4202 60.0793 56.5373 60.0761 57.3456 59.4625L69.2958 50.3932C70.8908 49.1828 72.9728 51.0916 71.9054 52.7854L60.7803 70.4358C59.0105 73.2434 55.221 73.9428 52.5659 71.9512L43.7174 65.3148C42.9056 64.706 41.7885 64.7092 40.9801 65.3228L29.03 74.3921C27.435 75.6025 25.3529 73.6938 26.4206 71.9999Z" fill="white"/>
<path opacity="0.5" fill-rule="evenodd" clip-rule="evenodd" d="M79.9563 29.3787C79.5515 29.8034 78.9066 29.8443 78.4615 29.4737C78.0159 29.1031 77.9119 28.4396 78.2207 27.9346L81.321 21.5539C81.6059 20.9636 81.5197 20.2548 81.1047 19.7613L78.1998 16.324L78.1132 16.2164C76.934 14.7006 77.1632 12.4657 78.6243 11.2238L86.4452 4.57827C86.8559 4.19285 87.4733 4.17454 87.8996 4.5349C88.3258 4.89527 88.4358 5.52733 88.1588 6.0262L85.1466 12.0576C84.8463 12.6553 84.9322 13.3814 85.3623 13.8797L88.3282 17.3113L88.4182 17.4364C89.6106 18.9379 89.4051 21.1725 87.9584 22.4306L79.9563 29.3787ZM93.7713 48.4978C93.4078 48.4388 93.153 48.1018 93.1801 47.7154C93.2072 47.3289 93.5071 47.0178 93.8767 46.9927L98.2537 46.2434C98.6583 46.1725 98.9881 45.8539 99.0885 45.4371L99.7857 42.527L99.8091 42.4384C100.152 41.211 101.375 40.4785 102.539 40.8029L108.765 42.5375C109.111 42.6149 109.344 42.9455 109.316 43.3177C109.287 43.6901 109.004 43.9926 108.65 44.0317L104.482 44.6956C104.069 44.7606 103.73 45.0869 103.632 45.5129L102.961 48.4547L102.93 48.5514C102.598 49.7814 101.384 50.5258 100.218 50.2161L93.7713 48.4978ZM96.9154 28.2048C98.0202 29.4262 97.9424 31.3432 96.7415 32.4856C95.5413 33.6276 93.672 33.5633 92.5672 32.342C91.4625 31.12 91.5402 29.2037 92.7412 28.0612C93.9421 26.9187 95.8108 26.9828 96.9154 28.2048ZM70.967 7.74262C71.851 8.71958 71.7884 10.2533 70.8282 11.1673C69.868 12.0814 68.373 12.0297 67.4885 11.052C66.6046 10.075 66.6671 8.542 67.6272 7.62792C68.588 6.71398 70.0832 6.76503 70.967 7.74262Z" fill="url(#paint1_linear)"/>
<defs>
<linearGradient id="paint0_linear" x1="11.2903" y1="24.52" x2="11.2903" y2="100.265" gradientUnits="userSpaceOnUse">
<stop stop-color="#00B3FF"/>
<stop offset="1" stop-color="#006AFF"/>
</linearGradient>
<linearGradient id="paint1_linear" x1="65.7785" y1="51.4177" x2="99.0776" y2="15.9369" gradientUnits="userSpaceOnUse">
<stop stop-color="#EFF3FE"/>
<stop offset="1" stop-color="#D4D4FD"/>
</linearGradient>
</defs>
</svg>
