<svg xmlns="http://www.w3.org/2000/svg" xmlns:xlink="http://www.w3.org/1999/xlink" viewBox="0 0 34.98 35"><defs><style>.cls-1{fill-rule:evenodd;fill:url(#radial-gradient);}.cls-2{opacity:0.33;}.cls-3{fill:url(#linear-gradient);}.cls-4{fill:url(#linear-gradient-2);}.cls-5{fill:url(#linear-gradient-3);}.cls-6{fill:url(#linear-gradient-4);}.cls-7{fill:url(#linear-gradient-5);}.cls-8{fill:url(#linear-gradient-6);}.cls-9{fill:url(#linear-gradient-7);}.cls-10{fill:url(#linear-gradient-8);}.cls-11{fill:url(#linear-gradient-9);}.cls-12{fill:url(#linear-gradient-10);}</style><radialGradient id="radial-gradient" cx="634.63" cy="-458.28" r="1" gradientTransform="matrix(-26, 31.5, 31.5, 26, 30963.09, -8071.19)" gradientUnits="userSpaceOnUse"><stop offset="0.5" stop-color="#ffd600"/><stop offset="1" stop-color="#ff7a00"/></radialGradient><linearGradient id="linear-gradient" x1="423.74" y1="11.45" x2="423.68" y2="9.51" gradientTransform="translate(-356.59 -164.4) rotate(25.47)" gradientUnits="userSpaceOnUse"><stop offset="0" stop-color="#ffd400"/><stop offset="0.24" stop-color="#ffcd00"/><stop offset="0.59" stop-color="#ffb900"/><stop offset="1" stop-color="#f90"/></linearGradient><linearGradient id="linear-gradient-2" x1="22.1" y1="24.62" x2="21.44" y2="28.36" gradientUnits="userSpaceOnUse"><stop offset="0" stop-color="#ffbf00" stop-opacity="0"/><stop offset="0.13" stop-color="#ffc004" stop-opacity="0.02"/><stop offset="0.25" stop-color="#ffc310" stop-opacity="0.06"/><stop offset="0.38" stop-color="#ffc824" stop-opacity="0.14"/><stop offset="0.5" stop-color="#ffcf40" stop-opacity="0.25"/><stop offset="0.63" stop-color="#ffd864" stop-opacity="0.39"/><stop offset="0.75" stop-color="#ffe390" stop-opacity="0.56"/><stop offset="0.88" stop-color="#fff0c4" stop-opacity="0.77"/><stop offset="1" stop-color="#fff"/></linearGradient><linearGradient id="linear-gradient-3" x1="430.32" y1="-11.43" x2="430.28" y2="-12.64" gradientTransform="matrix(0.9, 0.43, -0.43, 0.9, -377.11, -144.2)" xlink:href="#linear-gradient"/><linearGradient id="linear-gradient-4" x1="16.97" y1="28.25" x2="16.53" y2="30.73" xlink:href="#linear-gradient-2"/><linearGradient id="linear-gradient-5" x1="420.44" y1="-3.25" x2="420.34" y2="-6.62" gradientTransform="translate(-368.95 -150.96) rotate(25.47)" xlink:href="#linear-gradient"/><linearGradient id="linear-gradient-6" x1="13.77" y1="21.34" x2="12.82" y2="26.7" xlink:href="#linear-gradient-2"/><linearGradient id="linear-gradient-7" x1="410.84" y1="-9.72" x2="410.79" y2="-11.35" gradientTransform="translate(-370.05 -149.98) rotate(25.47)" xlink:href="#linear-gradient"/><linearGradient id="linear-gradient-8" x1="5.93" y1="14.96" x2="5.39" y2="18.07" xlink:href="#linear-gradient-2"/><linearGradient id="linear-gradient-9" x1="410.27" y1="-13.61" x2="410.19" y2="-16.31" gradientTransform="translate(-370.7 -150.15) rotate(25.47)" xlink:href="#linear-gradient"/><linearGradient id="linear-gradient-10" x1="6.96" y1="9.43" x2="6.17" y2="13.92" xlink:href="#linear-gradient-2"/></defs><title>moon</title><g id="Layer_2" data-name="Layer 2"><g id="Art_01" data-name="Art 01"><path class="cls-1" d="M18.18,35A18.21,18.21,0,0,1,10.9.11a1.24,1.24,0,0,1,1.66,1.57,16.84,16.84,0,0,0-.67,4.51,17,17,0,0,0,16.9,16.87,16.33,16.33,0,0,0,4.5-.68,1.28,1.28,0,0,1,1.58,1.72A18.09,18.09,0,0,1,18.18,35"/><g class="cls-2"><ellipse class="cls-3" cx="21.77" cy="26.49" rx="2.19" ry="1.14" transform="translate(-6.29 6.78) rotate(-15.5)"/><path class="cls-4" d="M22.5,25.24c.71,0,1.27.24,1.39.66.17.61-.64,1.37-1.81,1.69a3.89,3.89,0,0,1-1,.15c-.72,0-1.27-.24-1.39-.67-.17-.61.64-1.36,1.81-1.69a4.31,4.31,0,0,1,1-.14m0-.5h0a4.39,4.39,0,0,0-1.17.16c-1.48.41-2.4,1.4-2.15,2.31.18.64.88,1,1.87,1a4.29,4.29,0,0,0,1.16-.17c1.48-.41,2.41-1.4,2.16-2.3-.18-.65-.88-1-1.87-1Z"/></g><g class="cls-2"><ellipse class="cls-5" cx="16.75" cy="29.49" rx="1.37" ry="0.71" transform="translate(-1.4 0.84) rotate(-2.76)"/><path class="cls-6" d="M16.85,28.77c.69,0,1.25.28,1.27.65s-.58.74-1.33.78h-.13c-.7,0-1.26-.27-1.28-.65s.58-.74,1.34-.78h.13m0-.5h-.16c-1.06.06-1.84.62-1.8,1.31s.76,1.12,1.77,1.12h.15c1.07-.05,1.84-.61,1.81-1.3s-.76-1.13-1.77-1.13Z"/></g><g class="cls-2"><ellipse class="cls-7" cx="13.3" cy="24.02" rx="3.81" ry="1.99" transform="translate(-3.16 2.05) rotate(-7.87)"/><path class="cls-8" d="M14,22c1.65,0,2.94.61,3.07,1.52.15,1.09-1.42,2.2-3.5,2.49a6.65,6.65,0,0,1-1,.07c-1.65,0-2.94-.61-3.07-1.52-.15-1.08,1.42-2.2,3.5-2.49A8.52,8.52,0,0,1,14,22m0-.5h0a7.4,7.4,0,0,0-1,.08,6.36,6.36,0,0,0-2.81,1,2.16,2.16,0,0,0-1.12,2c.16,1.17,1.59,1.95,3.56,1.95a7.54,7.54,0,0,0,1.05-.08c2.39-.33,4.12-1.67,3.93-3.05C17.4,22.27,16,21.48,14,21.48Z"/></g><g class="cls-2"><ellipse class="cls-9" cx="5.66" cy="16.51" rx="1.84" ry="0.96" transform="translate(-2.21 0.93) rotate(-7.87)"/><path class="cls-10" d="M6,15.53c.8,0,1.43.29,1.49.73s-.69,1.07-1.7,1.21l-.47,0c-.8,0-1.43-.29-1.49-.73s.69-1.07,1.7-1.21l.47,0M6,15a3.27,3.27,0,0,0-.54,0A3.27,3.27,0,0,0,4,15.61a1.31,1.31,0,0,0-.65,1.23c.09.69.89,1.16,2,1.16a3.27,3.27,0,0,0,.54,0C7.18,17.78,8.1,17,8,16.19S7.09,15,6,15Z"/></g><g class="cls-2"><ellipse class="cls-11" cx="6.57" cy="11.67" rx="3.05" ry="1.59" transform="translate(-1.54 1.01) rotate(-7.87)"/><path class="cls-12" d="M7.13,10c1.32,0,2.36.49,2.46,1.22s-1.14,1.76-2.81,2A5.19,5.19,0,0,1,6,13.3c-1.32,0-2.35-.48-2.46-1.21s1.14-1.76,2.81-2A5.32,5.32,0,0,1,7.13,10m0-.5h0a6.18,6.18,0,0,0-.85.06c-2,.28-3.39,1.38-3.23,2.56.13,1,1.32,1.64,3,1.64a6.07,6.07,0,0,0,.85-.06c2-.27,3.4-1.37,3.23-2.55-.13-1-1.32-1.65-2.95-1.65Z"/></g></g></g></svg>
