<svg xmlns="http://www.w3.org/2000/svg" xmlns:xlink="http://www.w3.org/1999/xlink" viewBox="0 0 40 30"><defs><style>.cls-1,.cls-2{fill-rule:evenodd;}.cls-1{fill:url(#linear-gradient);}.cls-2{fill:url(#linear-gradient-2);}.cls-3{opacity:0.3;fill:url(#linear-gradient-3);}.cls-4{fill:url(#linear-gradient-4);}</style><linearGradient id="linear-gradient" x1="50.65" y1="14.77" x2="13.65" y2="15.46" gradientUnits="userSpaceOnUse"><stop offset="0.13" stop-color="#fd8fff"/><stop offset="0.42" stop-color="#8b44ff"/><stop offset="0.68" stop-color="#001286"/></linearGradient><linearGradient id="linear-gradient-2" x1="14.84" y1="32.7" x2="15.15" y2="-2.13" gradientUnits="userSpaceOnUse"><stop offset="0" stop-color="#3e2398"/><stop offset="0.17" stop-color="#3e3dcf"/><stop offset="0.57" stop-color="#8b44ff"/><stop offset="1" stop-color="#d168ff"/></linearGradient><linearGradient id="linear-gradient-3" x1="15" y1="6.36" x2="15" y2="21.29" gradientUnits="userSpaceOnUse"><stop offset="0" stop-color="#152a8f"/><stop offset="0.21" stop-color="#34379e" stop-opacity="0.92"/><stop offset="0.58" stop-color="#8959c6" stop-opacity="0.7"/><stop offset="1" stop-color="#ff89ff" stop-opacity="0.4"/></linearGradient><linearGradient id="linear-gradient-4" x1="38.19" y1="5.16" x2="38.19" y2="22.16" gradientUnits="userSpaceOnUse"><stop offset="0" stop-color="#ff89ff" stop-opacity="0.6"/><stop offset="0.23" stop-color="#f8f" stop-opacity="0.41"/><stop offset="0.47" stop-color="#f8f" stop-opacity="0.24"/><stop offset="0.69" stop-color="#ff87ff" stop-opacity="0.11"/><stop offset="0.88" stop-color="#ff87ff" stop-opacity="0.03"/><stop offset="1" stop-color="#ff87ff" stop-opacity="0"/></linearGradient></defs><title>video</title><g id="Layer_2" data-name="Layer 2"><g id="Art_01" data-name="Art 01"><path class="cls-1" d="M37.57,24.06,29,20.94a2.53,2.53,0,0,1-1.39-2.26V11.32A2.52,2.52,0,0,1,29,9.07l8.56-3.13A1.68,1.68,0,0,1,40,7.44V22.56a1.68,1.68,0,0,1-2.43,1.5"/><path class="cls-2" d="M23.68,30H6.32A6.5,6.5,0,0,1,0,23.33V6.67A6.5,6.5,0,0,1,6.32,0H23.68A6.5,6.5,0,0,1,30,6.67V23.33A6.5,6.5,0,0,1,23.68,30"/><path class="cls-3" d="M6.52,20.92V9.08A2.14,2.14,0,0,1,8.6,6.88H21.4a2.14,2.14,0,0,1,2.08,2.2V20.92a2.14,2.14,0,0,1-2.08,2.2H8.6A2.14,2.14,0,0,1,6.52,20.92Z"/><path class="cls-4" d="M37.57,5.94l-1.19.43V23.63l1.19.43A1.68,1.68,0,0,0,40,22.56V7.44A1.68,1.68,0,0,0,37.57,5.94Z"/></g></g></svg>
